#!OML:ASF H:\charlestonDancing\Project 1\Capture day 1\Session 1\femaleDancer.ASF
:FULLY-SPECIFIED
:DEGREES
254
root -0.374647 18.0449 -1.91419 -162.804 -99.8548 168.748
lowerback 15.1118 1.65154 4.70853
upperback 2.91521 2.8484 1.0135
thorax -5.1828 1.27533 -2.1281
lowerneck 0.457171 -2.52383 0.559325
upperneck 10.667 -3.6611 1.23208
head 3.35978 -1.80521 0.19898
rclavicle -2.38542e-015 2.14687e-014
rhumerus -39.4892 1.66808 -79.1531
rradius 58.5159
rwrist 21.0025
rhand -41.0776 -41.4292
rfingers 7.12502
rthumb -14.0064 -70.9373
lclavicle -2.38542e-015 2.14687e-014
lhumerus -53.4998 22.083 15.539
lradius 147.447
lwrist 2.31188
lhand -4.12342 -2.54924
lfingers 7.12502
lthumb 21.6354 26.262
rfemur -31.9217 -2.24762 24.0501
rtibia 47.3757
rfoot -7.79447 3.81485
rtoes -30.1633
lfemur -17.5847 1.71105 -22.5189
ltibia 40.29
lfoot -2.10369 -20.7879
ltoes -13.2599
255
root -0.487319 18.011 -1.95122 -164.721 -100.9 171.108
lowerback 14.415 1.39191 5.03519
upperback 2.83993 2.51919 0.834647
thorax -4.88135 1.12129 -2.41669
lowerneck -0.0330409 -2.57317 0.373577
upperneck 10.8521 -3.74687 1.43718
head 3.52654 -1.84174 0.286242
rclavicle -4.01545e-014 -1.11319e-014
rhumerus -39.5111 0.853998 -79.2561
rradius 56.6094
rwrist 20.7405
rhand -40.6439 -41.9559
rfingers 7.12502
rthumb -13.5884 -71.4924
lclavicle -4.01545e-014 -1.11319e-014
lhumerus -53.7283 22.7242 14.6065
lradius 146.789
lwrist 2.68856
lhand -4.44064 -3.16189
lfingers 7.12502
lthumb 21.3308 25.6841
rfemur -30.6899 -3.207 24.4796
rtibia 45.8196
rfoot -9.4158 4.77613
rtoes -21.6137
lfemur -19.2597 2.54547 -22.3319
ltibia 43.3846
lfoot -2.21433 -21.7087
ltoes -19.2734
256
root -0.559144 17.9187 -2.01519 -165.794 -101.604 172.742
lowerback 14.1738 1.34421 5.10839
upperback 2.54843 2.46778 0.635803
thorax -5.05034 1.09097 -2.65644
lowerneck -0.339935 -2.70214 0.171254
upperneck 10.9101 -3.9409 1.72323
head 3.61914 -1.93085 0.403303
rclavicle 1.47101e-014 4.37326e-015
rhumerus -39.6913 0.0376166 -79.4594
rradius 54.6617
rwrist 19.7899
rhand -40.456 -42.437
rfingers 7.12502
rthumb -13.4073 -71.9855
lclavicle 1.47101e-014 4.37326e-015
lhumerus -53.4014 23.2948 13.232
lradius 145.986
lwrist 3.61465
lhand -4.28317 -3.98263
lfingers 7.12502
lthumb 21.482 24.8462
rfemur -30.1172 -2.86253 24.7875
rtibia 44.5609
rfoot -12.2603 2.33326
rtoes -24.11
lfemur -21.7946 3.17933 -22.1668
ltibia 47.721
lfoot -2.68472 -21.2169
ltoes -21.9968
257
root -0.631472 17.8102 -2.07094 -166.017 -102.56 173.449
lowerback 13.831 1.25623 5.45853
upperback 2.22519 2.40547 0.579191
thorax -5.19278 1.05045 -2.89728
lowerneck -0.628861 -2.83252 -0.208682
upperneck 11.1085 -4.12272 1.88506
head 3.76058 -2.02534 0.510159
rclavicle 2.8625e-014 -3.26007e-014
rhumerus -40.0823 -0.405573 -79.5768
rradius 52.8413
rwrist 18.1776
rhand -40.4331 -42.6232
rfingers 7.12502
rthumb -13.3853 -72.1732
lclavicle 2.8625e-014 -3.26007e-014
lhumerus -52.7142 23.7738 11.979
lradius 145.023
lwrist 4.35462
lhand -4.23863 -4.94684
lfingers 7.12502
lthumb 21.5248 23.8771
rfemur -29.6526 -2.25892 25.0228
rtibia 43.6567
rfoot -14.5195 0.451131
rtoes -23.4622
lfemur -24.4846 3.25827 -21.8489
ltibia 53.0199
lfoot -3.20681 -19.2965
ltoes -19.347
258
root -0.699318 17.7218 -2.11818 -166.908 -103.61 174.491
lowerback 13.785 1.17702 5.69537
upperback 1.9094 2.36076 0.663121
thorax -5.50111 1.01317 -2.93931
lowerneck -0.720327 -2.95955 -0.784378
upperneck 11.367 -4.27251 1.83862
head 3.8862 -2.12278 0.586278
rclavicle 7.85199e-014 -1.66979e-014
rhumerus -40.5971 -0.353192 -79.5098
rradius 51.0486
rwrist 16.1374
rhand -40.3117 -42.4276
rfingers 7.12502
rthumb -13.2682 -71.9852
lclavicle 7.85199e-014 -1.66979e-014
lhumerus -51.8861 24.0445 11.1315
lradius 144.09
lwrist 4.90848
lhand -4.59672 -5.54617
lfingers 7.12502
lthumb 21.1808 23.3167
rfemur -29.0391 -1.64173 24.9272
rtibia 43.1148
rfoot -16.6209 -0.854495
rtoes -22.5686
lfemur -26.7133 2.52196 -21.5398
ltibia 59.2561
lfoot -8.65287 -16.2045
ltoes -24.4327
259
root -0.750006 17.6345 -2.16433 -168.02 -104.427 175.312
lowerback 14.2354 1.22775 5.76371
upperback 1.7083 2.49184 0.849026
thorax -5.95843 1.05919 -2.82446
lowerneck -0.63708 -3.14914 -1.3848
upperneck 11.5517 -4.49352 1.69582
head 3.95275 -2.26304 0.635302
rclavicle 8.34896e-015 5.56597e-015
rhumerus -40.9598 -0.0212277 -79.3442
rradius 49.1649
rwrist 13.9862
rhand -40.0353 -41.8247
rfingers 7.12502
rthumb -13.0018 -71.3995
lclavicle 8.34896e-015 5.56597e-015
lhumerus -50.9274 24.3662 10.7711
lradius 143.24
lwrist 5.5554
lhand -4.82871 -6.03378
lfingers 7.12502
lthumb 20.958 22.8539
rfemur -28.2625 -1.25152 24.8917
rtibia 42.7793
rfoot -18.1853 -1.76971
rtoes -20.1777
lfemur -28.6156 1.2872 -21.167
ltibia 66.0332
lfoot -12.2887 -14.5027
ltoes -21.6345
260
root -0.774049 17.5587 -2.20637 -167.66 -104.819 174.077
lowerback 15.3424 1.39813 6.20637
upperback 1.70055 2.87893 1.14501
thorax -6.53807 1.21409 -2.87386
lowerneck -0.568593 -3.35931 -1.78667
upperneck 11.7018 -4.73626 1.42835
head 4.00177 -2.41116 0.607346
rclavicle -5.96354e-016 -5.56597e-015
rhumerus -41.0135 0.396552 -79.2158
rradius 46.9745
rwrist 12.5037
rhand -39.7749 -41.0279
rfingers 7.12502
rthumb -12.7508 -70.6185
lclavicle -5.96354e-016 -5.56597e-015
lhumerus -49.9713 24.8961 10.8101
lradius 142.469
lwrist 6.32141
lhand -4.82674 -6.6143
lfingers 7.12502
lthumb 20.9599 22.2732
rfemur -27.0576 -1.0326 25.538
rtibia 42.2896
rfoot -18.6513 -2.79543
rtoes -19.1448
lfemur -30.2428 0.267832 -20.3292
ltibia 73.199
lfoot -14.4642 -11.993
ltoes -24.5237
261
root -0.778049 17.4915 -2.23171 -162.716 -105.14 167.848
lowerback 16.7189 1.44866 7.99136
upperback 1.84914 3.38548 1.75656
thorax -7.02383 1.3867 -3.3769
lowerneck -0.630122 -3.45519 -1.99461
upperneck 11.8512 -4.80994 0.970827
head 4.06032 -2.47516 0.486466
rclavicle -2.22639e-014 -2.70347e-014
rhumerus -40.5502 0.985352 -79.0573
rradius 44.1502
rwrist 12.4375
rhand -39.1603 -39.9859
rfingers 7.12502
rthumb -12.1582 -69.6126
lclavicle -2.22639e-014 -2.70347e-014
lhumerus -49.5108 25.5544 10.9079
lradius 141.91
lwrist 7.20008
lhand -4.90654 -6.97391
lfingers 7.12502
lthumb 20.8832 21.9221
rfemur -25.6225 -0.794224 27.5534
rtibia 41.6902
rfoot -18.2955 -3.50712
rtoes -17.5977
lfemur -31.779 -0.351112 -18.1518
ltibia 80.381
lfoot -15.9299 -10.8271
ltoes -28.4192
262
root -0.773296 17.4471 -2.24023 -154.025 -105.816 156.826
lowerback 19.0215 1.21049 11.1382
upperback 2.28552 3.93174 2.73779
thorax -7.6011 1.51582 -4.28112
lowerneck -0.711546 -3.44445 -2.02663
upperneck 11.9362 -4.73501 0.417775
head 4.08859 -2.46286 0.309254
rclavicle -3.08116e-014 1.51076e-014
rhumerus -39.6267 1.51 -78.712
rradius 40.8734
rwrist 13.9699
rhand -38.6324 -38.8138
rfingers 7.12502
rthumb -11.6492 -68.4699
lclavicle -3.08116e-014 1.51076e-014
lhumerus -49.6502 26.2354 10.9746
lradius 141.52
lwrist 7.85771
lhand -4.90814 -7.30858
lfingers 7.12502
lthumb 20.8817 21.5876
rfemur -22.944 -0.680382 30.9091
rtibia 40.7463
rfoot -18.0816 -3.4631
rtoes -15.6382
lfemur -32.02 -0.691413 -14.4039
ltibia 87.1884
lfoot -15.253 -11.9261
ltoes -23.1201
